<?xml version="1.0" encoding="utf-8"?>
<!-- Generator: Adobe Illustrator 25.2.1, SVG Export Plug-In . SVG Version: 6.00 Build 0)  -->
<svg version="1.1" id="Layer_2" xmlns="http://www.w3.org/2000/svg" xmlns:xlink="http://www.w3.org/1999/xlink" x="0px" y="0px"
	 viewBox="0 0 500 500" style="enable-background:new 0 0 500 500;" xml:space="preserve">
<style type="text/css">
	.st0{display:none;}
	.st1{display:inline;fill:#231F20;stroke:#FFFFFF;stroke-miterlimit:10;}
	.st2{fill:#CEA320;stroke:#231F20;stroke-width:4;stroke-miterlimit:10.0001;}
	.st3{fill:#CEA320;stroke:#231F20;stroke-width:4;stroke-miterlimit:10;}
	.st4{fill:#CEA320;stroke:#231F20;stroke-width:0.75;stroke-miterlimit:10;}
	.st5{fill:#CEA320;stroke:#FFFFFF;stroke-miterlimit:10;}
	.st6{fill:#CEA320;stroke:#231F20;stroke-miterlimit:10;}
	.st7{fill:#CEA320;stroke:#FFFFFF;stroke-width:4;stroke-miterlimit:10;}
	.st8{fill:#CEA320;stroke:#231F20;stroke-width:5;stroke-miterlimit:10.0001;}
	.st9{fill:#CEA320;stroke:#231F20;stroke-width:5;stroke-miterlimit:10;}
	.st10{display:inline;fill:none;stroke:#231F20;stroke-width:6;stroke-miterlimit:10;}
	.st11{display:inline;fill:none;stroke:#231F20;stroke-width:11;stroke-miterlimit:10;}
</style>
<g id="Layer_5" class="st0">
	<rect x="-4.84" y="-7.8" class="st1" width="510.13" height="510.13"/>
</g>
<g id="Layer_7" class="st0">
</g>
<g id="Layer_3">
	<g id="Layer_6_3_">
		<path class="st2" d="M167.9,33.2"/>
		<polyline class="st2" points="266.69,448.66 115.92,469.98 56.39,48.96 150.39,35.67 		"/>
		<path class="st2" d="M266.69,448.66"/>
		<polyline class="st2" points="257.27,20.56 354.08,6.87 357.29,29.21 		"/>
		<path class="st2" d="M257.27,20.56"/>
		<path class="st2" d="M167.9,33.2"/>
		<polyline class="st3" points="122.4,420.53 71.64,61.58 149.2,50.6 		"/>
		<polyline class="st3" points="201.97,443.03 132.86,452.8 127.08,453.62 122.4,420.53 		"/>
		<path class="st3" d="M249.91,436.25"/>
		<path class="st3" d="M280.19,431.96"/>
		<path class="st3" d="M341.46,423.3"/>
		<path class="st3" d="M346.79,446.18"/>
		<path class="st3" d="M396.25,439.18"/>
		<path class="st3" d="M345.09,29.75"/>
		<line class="st3" x1="344.14" y1="23.03" x2="344.84" y2="28.03"/>
		<line class="st3" x1="323.19" y1="25.99" x2="344.14" y2="23.03"/>
		<path class="st3" d="M323.19,25.99"/>
		<path class="st3" d="M149.2,50.6"/>
		<path class="st3" d="M122.76,110.39"/>
		<path class="st3" d="M94.44,114.4"/>
		<path class="st3" d="M368,333.33"/>
		<path class="st3" d="M115.8,146.83c8.51,8.72,14.35,7.24,16.07-0.95c2.03-9.6-22.3-28.6-22.3-28.6s-17.18,25.49-14.9,32.21
			c2.3,6.73,10.84,11.64,17.1-2.23c0.02-0.04,0.08-0.03,0.07,0.02c-0.13,1.75-1.1,13.55-2.86,14.83c-0.03,0.02-0.01,0.06,0.02,0.06
			l12.86-1.82C121.87,160.33,116.14,151.1,115.8,146.83"/>
		<path class="st3" d="M216.67,341.29"/>
		<path class="st3" d="M153.04,273.46"/>
		<path class="st4" d="M215.65,129.64"/>
		<path class="st4" d="M215.76,129.63"/>
	</g>
	<line class="st3" x1="94.29" y1="76.65" x2="98.94" y2="110.06"/>
	<polyline class="st3" points="112.41,74.12 97.3,93.26 117.07,107.53 	"/>
	<path class="st3" d="M368.64,405.88"/>
	<path class="st3" d="M350.51,408.41"/>
	<path class="st3" d="M86.94,415.72"/>
	<path class="st3" d="M86.94,415.72"/>
	<path class="st3" d="M149.2,50.6"/>
	<path class="st3" d="M149.2,50.6"/>
	<path class="st5" d="M155.73-31.67"/>
	<path class="st6" d="M459.47,204.31"/>
	<path class="st3" d="M90.99,442.59"/>
	<path class="st3" d="M90.99,442.59"/>
	<path class="st3" d="M173.29,436.86"/>
	<path class="st3" d="M173.29,436.86"/>
	<path class="st3" d="M239.28,442.6"/>
	<path class="st3" d="M239.28,442.6"/>
	<path class="st7" d="M327.14,453.92"/>
	<path class="st3" d="M296.89,11.63"/>
	<path class="st3" d="M296.89,11.63"/>
	<path class="st3" d="M355.66,78.21"/>
	<path class="st3" d="M318.97,13.71"/>
	<path class="st3" d="M343.1,16.01"/>
	<g id="Layer_6_4_">
		<polygon class="st8" points="129.64,453.72 152.32,12.73 473.93,38.28 451.25,479.27 		"/>
		<polygon class="st9" points="165.8,29.03 460.2,52.4 439.1,463.05 150.94,440.17 144.69,439.68 		"/>
		<polyline class="st9" points="179.08,87.87 194.36,54 196.96,54.2 209.68,90.3 		"/>
		<line class="st9" x1="184.4" y1="76.09" x2="205.26" y2="77.74"/>
		<polyline class="st9" points="386.05,407.78 397.73,443.79 400.32,444 416.64,410.21 		"/>
		<line class="st9" x1="390.11" y1="420.31" x2="410.97" y2="421.96"/>
		<path class="st9" d="M405.2,372.83c8.23-9.58,14.6-8.39,17.24,0c3.09,9.85-21.01,31.07-21.01,31.07s-20.81-25.43-19.02-32.54
			c1.79-7.14,10.43-12.76,18.45,1.28c0.02,0.04,0.08,0.03,0.08-0.02c-0.31-1.81-2.48-14.01-4.49-15.23
			c-0.03-0.02-0.02-0.06,0.02-0.06l13.9,1.1C410.36,358.43,405.15,368.38,405.2,372.83"/>
		<path class="st9" d="M194.98,125.7c7.18,10.8,13.62,10.64,17.1,2.72c4.08-9.28-17.66-34.15-17.66-34.15s-23.24,21.93-22.2,29.27
			c1.05,7.36,9.04,14.3,18.44,1.65c0.03-0.04,0.09-0.01,0.08,0.03c-0.49,1.75-3.9,13.5-6.01,14.39c-0.04,0.01-0.03,0.06,0.01,0.06
			l13.9,1.1C198.63,140.79,194.47,130.1,194.98,125.7"/>
	</g>
	<path class="st3" d="M150.39,35.67"/>
	<path class="st6" d="M306.54,137.41c-0.7,2.13-1.76,4.17-2.81,6.19c-4.81,9.23-9.78,18.65-18.23,25.85
		c-6.14,5.23-10.39,11.84-15.87,17.71c-4.5,4.82-8.8,9.53-13.35,14.29c-6.46,6.75-11.79,14.24-19,20.25
		c-7.22,6.02-11.24,14.79-15.42,23.13c-4.04,8.04-8.1,16.24-8.84,25.24c-0.71,8.6,1.5,17.57,6.58,24.83c1,1.43,2.34,2.46,3.54,3.74
		c0.86,0.92,1.74,1.84,2.63,2.74c3.59,3.58,7.64,6.71,12.02,9.31c2.4,1.42,5.11,2.27,7.84,2.79c5.19,1,10.5,0.56,15.73,0.12
		c2.17-0.19,4.26-0.59,6.31-1.25c7.07-2.26,13.64-5.87,19.23-10.57c1.56-1.31,3.09-2.75,3.95-4.57c2.63,2.22,2.93,5.74,2.7,9.04
		c-0.4,5.88-2.1,11.63-4.95,16.76c-4.32,7.77-7.6,15.82-13.12,22.82c-0.64,0.82-1.27,1.48-2.06,2.16c-2.04,1.72-4.14,3.36-6.31,4.93
		l30.66,2.09"/>
	<path class="st6" d="M299.31,308.24c-1.32,1.54-2.43,3.25-3.29,5.09c2.78,5.78,2.08,12.9-1.5,18.04
		c-4.09,5.89-8.53,11.55-13.71,16.54c2.77,0.24,5.48-1.11,8.17-1.7c3.02-0.66,6.19-0.55,9.29-0.11"/>
	<path class="st6" d="M298.7,327.17c-1.57,4.36-3.52,8.56-5.83,12.57c-1.02,1.76-2.17,3.56-3.97,4.57c2.97-0.6,6.03-0.89,9.07-1"/>
	<path class="st6" d="M305.64,150.64c-1.78,3.92-3.13,8.02-4.88,11.95c-1.76,3.93-3.98,7.73-7.22,10.61
		c-5.29,4.71-8.59,11.03-13.69,15.92c-6.35,6.09-12.39,12.21-19,18.02c-7.43,6.51-14.1,13.51-21.11,20.43
		c-4.95,4.88-7.76,11.52-11.21,17.51c-0.78,1.35-1.55,2.69-2.33,4.04c-4.24,7.34-5.4,15.63-5.69,24.14
		c-0.07,2.09,0.15,4.18,0.81,6.2c1.44,4.38,3.23,8.65,5.36,12.76c1.89,3.63,5.15,6.39,8.31,9.07c3.16,2.69,6.93,4.84,11.02,5.56
		c8.26,1.48,16.9,0.22,24.38-3.16c0.8,0.28,1.67-0.02,2.39-0.42c3-1.66,5.81-3.63,8.36-5.87c3.67-3.22,6.96-6.8,9.61-10.87
		c4.6,3.41,7.81,8.45,8.66,13.95"/>
	<path class="st6" d="M299.72,294.92c-1.47-4.47-4.3-8.55-8.03-11.6c-0.64-0.53-1.37-1.04-2.19-1.11
		c-1.61,4.44-3.98,8.54-7.18,12.06c-2.6,2.87-6.04,5.14-9.86,6.18c-1.01,0.27-1.61,0.83-2.44,1.43c-0.54,0.39-1.17,0.64-1.78,0.89
		c-0.77,0.31-1.55,0.62-2.32,0.93"/>
	<path class="st6" d="M224.18,278.46c-0.19,0.8,0.07,1.64,0.35,2.43c1.23,3.57,1.8,7.55,4.2,10.54c1.66,2.07,3.02,4.34,4.76,6.34
		c1.75,1.99,3.99,3.74,6.61,4.22c3.68,0.68,6.51,3.43,10.24,3.53c5.24,0.14,10.64,0.01,15.47-1.8c0.39,0.12,0.49,0.05,0.82-0.18"/>
	<path class="st6" d="M228.08,251.4c-3.02,7.67-4.6,15.9-4.67,24.19c-0.01,1.1,0.2,2.1,0.41,3.18"/>
	<path class="st6" d="M227.6,251.73c2.46-4.78,5.45-9.29,8.62-13.65c5.09-7.01,10.66-13.7,16.65-19.99c1.33-1.4,2.5-2,3.88-3.35
		c3.92-3.8,7.84-7.6,11.77-11.41c2.49-2.41,4.91-4.61,7.37-7.06c4.47-4.46,8.77-9.09,12.95-13.82c4.1-4.64,8.07-9.39,10.93-14.86
		c0.91-1.74,1.88-3.57,2.99-5.19c0.45-0.65,0.9-1.31,1.35-1.96c-0.76,5.42-2.62,10.61-5.75,15.1c-1.35,1.94-2.82,3.99-4.07,6
		c-1.54,2.49-3.51,4.69-5.62,6.75c-4.08,3.99-7.09,8.61-10.3,13.31"/>
	<path class="st6" d="M294.75,192.86c-1.3-1.18-2.75-2.42-4.49-2.34c1.46-2.29,3.12-4.44,4.98-6.43
		C295.09,187.1,294.83,189.86,294.75,192.86z"/>
	<path class="st6" d="M304.76,171.18c-0.07,0.94-0.49,1.79-0.89,2.63c-1.8,3.7-3.62,7.39-5.42,11.09
		c-2.4,4.91-2.43,10.89-0.47,16.11c1.07,2.87,1.17,6.06,1.82,9.03c0.34,1.54,0.68,3.07,0.88,4.62c0.12,0.9,0.02,1.82,0.21,2.73
		c0.48,2.26,0.78,4.54,0.92,6.83c0.13,2.26,0.13,4.51,0.48,6.76"/>
	<path class="st6" d="M297.97,220.11c-3.46-3.65-6.43-7.74-8.79-12.13c-0.62-1.15-1.01-2.36-1.62-3.51
		c-0.92-1.75-1.46-3.68-1.57-5.61c-0.07-1.11,0.07-2.37,0.94-3.06c0.54-0.43,1.26-0.57,1.95-0.7c1.42-0.26,3.04-0.49,4.25,0.36
		c0.87,0.61,1.29,1.64,1.62,2.63c0.63,1.94,1.01,3.93,1.14,5.94C296.23,209.45,296.99,214.76,297.97,220.11z"/>
	<path class="st6" d="M279.35,205.08c0.83-0.49,1.9-0.6,2.84-0.28c1.4,0.47,2.58,1.79,4.03,1.71c-0.33-0.66-0.67-1.32-1-1.99
		c-0.33-0.65-0.66-1.31-0.86-2c-0.43-1.52-0.2-3.11,0.03-4.64C282.5,200,280.79,202.65,279.35,205.08z"/>
	<path class="st6" d="M299.83,239.12c0.67-2.53,0.55-5.26-0.34-7.77c-0.33-0.93-0.8-1.8-0.94-2.77c-0.33-2.27-1.46-4.39-2.76-6.34
		c-1.29-1.95-2.52-4.16-3.89-6.06c-0.55-0.76-1.1-1.52-1.65-2.27c-1.06-1.45-2.13-2.93-3.48-4.14c-1.35-1.21-3.04-2.24-4.84-2.24
		c-1.72,0-3.43,0.56-4.78,1.56c-0.36,0.27-0.7,0.57-0.94,0.95c-0.49,0.79-0.48,1.78-0.45,2.71c2.16-0.34,4.42,0.45,6.33,1.56
		c1.91,1.11,3.54,2.64,5.14,4.14c1.76,1.66,3.52,3.32,5.28,4.97c1.8,1.68,3.27,3.66,4.13,5.92s1.28,4.64,1.71,6.99
		C298.54,237.48,299.27,238.09,299.83,239.12z"/>
	<path class="st6" d="M302.39,240.04c-0.81,0.74-1.64,1.5-2.15,2.46c-0.51,0.96-0.68,2.18-0.13,3.15c0.19,0.33,0.44,0.62,0.62,0.96
		c0.46,0.86,0.34,1.87,0.34,2.83c0.01,0.96,0.25,2.05,1.1,2.55"/>
	<path class="st6" d="M261.37,225.05c-0.05,3.74,0.09,7.6,1.53,11.12c1.21,2.97,3.35,5.59,6.06,7.43c2.54,1.74,5.59,2.71,8.64,2.69
		c0.58-0.01,1.17-0.04,1.72-0.22c0.76-0.24,1.41-0.72,1.99-1.25c2-1.84,3.27-4.41,3.52-7.11"/>
	<path class="st6" d="M278.64,201.33c-4.85,5.64-9.71,11.29-14.57,16.93c-3.97,4.62-8.05,8.95-12.18,13.43
		c-1.65,1.79-3.26,3.49-4.78,5.4c-1.05,1.33-1.98,2.75-2.91,4.17c-2.33,3.57-4.64,7.13-6.97,10.7c-3.49,5.37-5,11.8-5.36,18.22
		c-0.14,2.48-0.37,4.83-0.48,7.31c-0.06,1.33-0.1,2.68,0.14,4.01c0.28,1.56,0.92,3.03,1.6,4.48c0.79,1.69,1.62,3.37,2.5,5.02
		c1.43,2.71,3.31,5.22,5.73,7.18c1.85,1.5,3.97,2.64,6.1,3.73c1.25,0.65,2.68,0.52,4.05,0.82c6.03,1.33,12.55,0.03,17.41-3.47
		c4.02-2.89,7.75-6.38,10.62-10.35c1.51-2.1,3.17-3.57,4.36-5.86c1.09-2.12,2.2-4.24,3.29-6.35c0.47-0.9,0.93-1.8,1.27-2.75
		c3.32,5.23,7.21,10.18,11.59,14.64"/>
	<path class="st6" d="M287.61,267.5c3.84,6.71,8.2,13.15,12.99,19.27"/>
	<path class="st6" d="M300.03,288.29c0.11,0.32,0.34,0.6,0.65,0.77"/>
	<path class="st6" d="M287.74,267.62c-1.46,3.82-3.03,7.59-4.71,11.31c-1.18,2.64-2.43,5.28-4.32,7.46"/>
	<path class="st6" d="M278.63,286.23c-3.22,4.31-6.53,8.72-11.13,11.62c-1.55,0.98-3.25,1.46-4.96,2.17
		c-3.41,1.41-7.39,1.51-10.96,0.3c-1.16-0.39-2.32-0.69-3.51-0.98c-3.58-0.87-6.83-3.09-8.92-6.08c-2.08-2.99-2.99-6.72-2.46-10.22
		c1.38,2.86,3.49,5.32,6.08,7.24c1.13,0.83,2.36,1.5,3.57,2.22c2.72,1.61,6.11,2.04,9.08,1.15c1.1,0.36,2.28-0.07,3.31-0.52
		c2.94-1.3,5.79-2.78,8.53-4.45c4.12-2.5,7.07-6.7,9.52-10.77c0.63-1.05,0.83-2.27,1.4-3.36c0.74-1.42,1.17-3.01,1.24-4.61
		c0.02-0.45,0.01-0.93-0.16-1.35c-0.17-0.43-0.52-0.82-0.98-0.94c-0.33,1.09-0.01,2.26-0.41,3.32c-0.35,0.93-1.15,1.61-1.92,2.26
		c-1.85,1.55-3.7,3.1-5.55,4.65c-1.76-1.02-3.36-2.02-5.18-2.94c0.17,1.15,0.77,2.21,1.17,3.3c0.66,1.8,0.44,3.79-0.3,5.52
		c-0.73,1.72-1.96,3.2-3.3,4.52c-2.52,2.47-5.68,4.4-9.29,4.74c-1.67,0.16-3.52-0.01-4.83-1.08c-0.7-0.01-1.35-0.51-1.97-0.82
		c-1.36-0.7-2.73-1.41-3.92-2.38c-1.19-0.96-2.18-2.21-2.55-3.66c-0.67-2.58-1.13-5.61-0.34-8.12c0.26-0.8,0.55-1.59,0.99-2.3
		c0.78-1.25,2.02-2.26,2.41-3.69c2.29-1.54,4.88-3.25,7.7-3.36c3.11-0.12,6.13,1.68,8.02,4.15c0.2,0.26,0.39,0.54,0.38,0.86
		c-0.01,0.25-0.16,0.49-0.31,0.7c-0.63,0.92-1.26,1.84-1.89,2.76c-1.23-0.28-1.6-1.45-2.61-2.2c-1.08-0.8-2.51-1.03-3.83-0.85
		c-1.31,0.19-2.53,0.75-3.67,1.4c-1.38,0.79-2.73,1.78-3.31,3.24c-0.78,1.95,0.02,4.19,1.08,6.06c0.86,1.52,2.03,3.07,3.74,3.56
		c0.51,0.14,0.84,0.4,1.32,0.6c3.19,1.32,7.06,0.82,9.69-1.24c2.63-2.07,3.91-5.62,3.22-8.89c-0.25-1.19-0.74-2.41-0.42-3.57"/>
	<path class="st6" d="M260.23,275.95c-0.92,0.89-2.13,1.48-3.42,1.68c0.4,0.86,0.11,1.89-0.48,2.61c-0.58,0.73-1.42,1.21-2.24,1.67
		c-0.49,0.29-1.07,0.57-1.63,0.39c-0.3-0.1-0.53-0.32-0.73-0.55c-0.88-1-1.29-2.37-1.09-3.64c0.02-0.12,0.04-0.24,0.12-0.33
		c0.09-0.09,0.22-0.13,0.34-0.16c0.67-0.15,1.37-0.19,2.06-0.12c0.37-0.35,0.07-1.19-0.28-1.57c-0.36-0.37-0.9-0.52-1.43-0.57
		c-1.94-0.16-3.85,1-4.65,2.7c-1.15,2.45,0.13,5.67,2.56,7.11c2.43,1.44,5.68,1.15,7.92-0.41c0.62-0.43,1.18-0.96,1.6-1.58
		C260.21,281.23,260.43,278.35,260.23,275.95z"/>
	<path class="st6" d="M240.15,253.44c-1.01,1.49-1.84,3.1-2.45,4.78c-0.56,1.55-0.94,3.16-1.32,4.76
		c-1.36,5.76-2.47,11.57-1.6,17.48c0.35-3.19,1.96-6.08,3.76-8.74c1.7-2.51,4-4.05,6.58-5.71c1.96-1.26,4.5-1.51,6.87-1.07
		c2.36,0.43,4.57,1.5,6.64,2.7c0.91,0.53,1.85,1.13,2.36,2.04c0.17-0.35,0.33-0.6,0.47-0.96c1.78-4.24,0.98-9.12,0.08-13.7
		c-0.3-1.54-0.65-3.15-1.69-4.37c-0.95-1.11-2.38-1.76-3.84-2.03c-1.45-0.27-3.13-0.26-4.59-0.21c-0.24-0.61-0.01-1.32,0.42-1.79
		c0.43-0.47,1.04-0.78,1.66-1.01c1.35-0.52,2.86-0.82,4.31-0.5c1.44,0.32,2.81,1.35,3.18,2.74c0.71-1.04,0.78-2.49,0.18-3.63
		c3.04,2.29,4.57,6.07,4.87,9.74c0.3,3.67-0.47,7.31-1.24,10.88c-0.5,2.35-1.01,4.7-1.52,7.05c-0.18,0.87-0.64,1.67-1.1,2.42"/>
	<path class="st6" d="M261.4,224.98c-4.13,3.95-7.85,8.31-11.09,12.99c-3.58,5.17-7.3,10.15-10.15,15.74"/>
	<path class="st6" d="M306.65,137.42c0.52,2.22,1.41,4.38,2.29,6.54c4.05,9.83,8.23,19.88,16.05,28.18
		c5.68,6.03,9.38,13.19,14.35,19.78c4.09,5.41,7.98,10.68,12.14,16.03c5.88,7.59,10.59,15.78,17.26,22.73
		c6.7,6.97,9.99,16.24,13.48,25.09c3.37,8.54,6.75,17.25,6.77,26.31c0.01,8.65-2.9,17.27-8.54,23.8c-1.11,1.29-2.53,2.13-3.82,3.23
		c-0.93,0.8-1.87,1.6-2.84,2.36c-3.86,3.07-8.13,5.64-12.7,7.62c-2.5,1.09-5.26,1.57-8.02,1.72c-5.24,0.29-10.49-0.87-15.65-2.02
		c-2.15-0.47-4.18-1.16-6.18-2.1c-6.85-3.21-13.09-7.69-18.28-13.13c-1.45-1.52-2.84-3.15-3.56-5.09c-2.79,1.85-3.38,5.3-3.42,8.63
		c-0.07,5.9,1.15,11.85,3.58,17.34c3.67,8.31,6.28,16.78,11.22,24.48c0.57,0.9,1.14,1.65,1.88,2.42c1.89,1.98,3.85,3.9,5.88,5.76
		l-30.66-2.09"/>
	<path class="st6" d="M300.13,308.3c1.19,1.71,2.16,3.57,2.87,5.5c-3.23,5.36-3.1,12.54,0.03,18.14c3.59,6.41,7.55,12.65,12.3,18.33
		c-2.77-0.14-5.36-1.85-7.99-2.8c-2.95-1.07-6.11-1.39-9.24-1.37"/>
	<path class="st6" d="M299.21,327.2c1.21,4.55,2.82,9,4.79,13.3c0.88,1.89,1.88,3.84,3.58,5.1c-2.9-1-5.92-1.71-8.94-2.22"/>
	<path class="st6" d="M306.49,150.69c1.46,4.14,2.46,8.4,3.9,12.55c1.43,4.14,3.33,8.23,6.32,11.53c4.88,5.4,7.65,12.14,12.34,17.7
		c5.82,6.92,11.34,13.83,17.45,20.5c6.86,7.49,12.94,15.35,19.36,23.19c4.53,5.53,6.78,12.51,9.74,18.94c0.67,1.45,1.33,2.89,2,4.34
		c3.63,7.88,4.12,16.28,3.72,24.79c-0.1,2.08-0.48,4.14-1.3,6.05c-1.78,4.16-3.91,8.16-6.36,11.96c-2.17,3.36-5.64,5.65-9,7.9
		c-3.36,2.25-7.27,3.87-11.4,4.03c-8.33,0.34-16.83-2.09-24-6.46c-0.82,0.17-1.66-0.24-2.34-0.74c-2.84-2.06-5.48-4.41-7.85-6.98
		c-3.4-3.7-6.37-7.72-8.68-12.12c-4.85,2.77-8.45,7.34-9.74,12.7"/>
	<path class="st6" d="M300.78,294.99c1.83-4.24,4.97-7.92,8.91-10.44c0.68-0.44,1.45-0.85,2.27-0.8c1.25,4.64,3.28,9.03,6.16,12.97
		c2.36,3.2,5.59,5.94,9.31,7.48c0.98,0.4,1.54,1.05,2.31,1.75c0.5,0.46,1.11,0.79,1.7,1.12c0.74,0.42,1.49,0.82,2.24,1.24"/>
	<path class="st6" d="M377.24,288.9c0.13,0.82-0.21,1.62-0.54,2.37c-1.51,3.39-2.39,7.27-5.02,9.91c-1.81,1.83-3.35,3.9-5.25,5.65
		c-1.89,1.74-4.27,3.17-6.92,3.3c-3.72,0.18-6.76,2.52-10.47,2.12c-5.23-0.57-10.58-1.44-15.25-3.9c-0.4,0.07-0.49-0.02-0.8-0.29"/>
	<path class="st6" d="M375.53,261.47c2.39,8.03,3.3,16.43,2.69,24.69c-0.08,1.09-0.37,2.06-0.66,3.11"/>
	<path class="st6" d="M375.98,261.86c-2.06-5.1-4.67-9.99-7.47-14.75c-4.51-7.66-9.5-15.07-14.95-22.15
		c-1.21-1.57-2.33-2.33-3.59-3.85c-3.59-4.32-7.19-8.63-10.79-12.95c-2.29-2.74-4.51-5.25-6.75-8.03
		c-4.09-5.05-7.99-10.23-11.78-15.5c-3.7-5.17-7.28-10.44-9.68-16.26c-0.77-1.86-1.58-3.81-2.56-5.57c-0.4-0.71-0.79-1.42-1.18-2.13
		c0.32,5.5,1.75,10.9,4.5,15.8c1.19,2.11,2.48,4.36,3.56,6.52c1.33,2.68,3.12,5.15,5.05,7.48c3.74,4.52,6.37,9.53,9.18,14.63"/>
	<path class="st6" d="M313.93,194.17c1.38-1,2.93-2.03,4.66-1.72c-1.27-2.47-2.74-4.84-4.44-7.07
		C314.06,188.4,314.09,191.16,313.93,194.17z"/>
	<path class="st6" d="M305.72,171.24c0,0.94,0.34,1.85,0.68,2.74c1.5,3.92,3,7.85,4.5,11.76c1.99,5.21,1.53,11.16-0.83,16.09
		c-1.29,2.7-1.64,5.88-2.54,8.74c-0.46,1.48-0.92,2.96-1.25,4.47c-0.19,0.89-0.17,1.81-0.43,2.68c-0.66,2.18-1.14,4.41-1.46,6.67
		c-0.31,2.22-0.5,4.47-1.02,6.65"/>
	<path class="st6" d="M308.54,220.84c3.73-3.16,7.01-6.82,9.71-10.86c0.71-1.06,1.19-2.21,1.89-3.28c1.06-1.61,1.75-3.45,2.01-5.37
		c0.16-1.1,0.12-2.36-0.69-3.17c-0.5-0.5-1.21-0.74-1.89-0.96c-1.39-0.46-2.99-0.89-4.25-0.22c-0.91,0.49-1.42,1.46-1.81,2.4
		c-0.77,1.84-1.32,3.77-1.61,5.76C311.13,210.46,309.94,215.64,308.54,220.84z"/>
	<path class="st6" d="M328.27,208.42c-0.79-0.6-1.84-0.85-2.81-0.66c-1.43,0.28-2.71,1.43-4.15,1.16c0.38-0.61,0.77-1.22,1.15-1.84
		c0.38-0.6,0.76-1.21,1.02-1.87c0.55-1.45,0.45-3.06,0.35-4.61C325.55,202.94,327.02,205.81,328.27,208.42z"/>
	<path class="st6" d="M302.54,240.04c0.74,0.85,1.5,1.71,1.94,2.74s0.5,2.26-0.13,3.15c-0.21,0.3-0.49,0.56-0.69,0.86
		c-0.52,0.79-0.48,1.81-0.57,2.76c-0.08,0.95-0.41,2.01-1.3,2.39"/>
	<path class="st6" d="M344.54,230.72c-0.25,3.74-0.69,7.54-2.41,10.84c-1.45,2.79-3.79,5.1-6.62,6.57c-2.67,1.38-5.77,1.93-8.81,1.5
		c-0.57-0.08-1.16-0.2-1.7-0.45c-0.74-0.34-1.35-0.91-1.88-1.51c-1.85-2.1-2.9-4.83-2.92-7.55"/>
	<path class="st6" d="M329.27,204.78c4.38,6.28,8.75,12.54,13.13,18.82c3.59,5.14,7.28,10,11.04,15.02c1.5,2.01,2.96,3.92,4.31,6.02
		c0.94,1.46,1.75,3.01,2.55,4.54c2.03,3.86,4.04,7.72,6.07,11.59c3.04,5.82,4.02,12.41,3.87,18.85c-0.06,2.48-0.01,4.86-0.1,7.34
		c-0.05,1.34-0.12,2.68-0.46,3.97c-0.4,1.51-1.17,2.89-1.95,4.24c-0.92,1.58-1.88,3.14-2.89,4.66c-1.65,2.5-3.72,4.74-6.28,6.35
		c-1.96,1.23-4.16,2.09-6.36,2.88c-1.29,0.47-2.7,0.15-4.1,0.27c-6.11,0.5-12.48-1.67-17.04-5.81c-3.76-3.41-7.2-7.41-9.74-11.74
		c-1.33-2.29-2.86-3.99-3.86-6.43c-0.92-2.26-1.84-4.51-2.76-6.77c-0.39-0.95-0.78-1.92-1.05-2.91c-3.72,4.76-7.99,9.15-12.71,12.98
		"/>
	<path class="st6" d="M315.03,269.38c-4.36,6.15-9.2,11.97-14.47,17.39"/>
	<path class="st6" d="M301.02,288.36c-0.14,0.3-0.4,0.55-0.7,0.68"/>
	<path class="st6" d="M314.9,269.48c1.15,3.99,2.4,7.95,3.77,11.89c0.96,2.78,1.99,5.57,3.7,8.01"/>
	<path class="st6" d="M322.46,289.21c2.85,4.73,5.79,9.56,10.14,13.07c1.46,1.19,3.11,1.9,4.75,2.83c3.28,1.86,7.23,2.51,10.88,1.78
		c1.18-0.24,2.36-0.37,3.56-0.49c3.63-0.38,7.04-2.14,9.36-4.83c2.32-2.69,3.51-6.28,3.27-9.83c-1.6,2.65-3.9,4.82-6.63,6.37
		c-1.19,0.67-2.47,1.17-3.72,1.72c-2.83,1.23-6.25,1.19-9.12-0.1c-1.12,0.21-2.27-0.38-3.25-0.97c-2.82-1.7-5.54-3.56-8.13-5.58
		c-3.89-3.05-6.49-7.63-8.61-12.01c-0.54-1.13-0.64-2.37-1.12-3.52c-0.63-1.52-0.92-3.15-0.85-4.76c0.02-0.45,0.07-0.92,0.27-1.32
		c0.2-0.4,0.58-0.75,1.04-0.8c0.24,1.13-0.18,2.24,0.14,3.36c0.27,0.97,1.01,1.76,1.72,2.51c1.72,1.79,3.43,3.59,5.14,5.38
		c1.83-0.77,3.5-1.55,5.38-2.22c-0.26,1.11-0.94,2.09-1.43,3.13c-0.79,1.7-0.74,3.71-0.15,5.52c0.59,1.81,1.69,3.45,2.92,4.94
		c2.31,2.8,5.29,5.15,8.86,5.98c1.65,0.39,3.49,0.47,4.88-0.42c0.69,0.08,1.39-0.32,2.03-0.55c1.41-0.51,2.84-1.03,4.09-1.83
		s2.34-1.9,2.84-3.29c0.88-2.48,1.58-5.43,0.99-8.03c-0.19-0.83-0.41-1.66-0.8-2.43c-0.68-1.36-1.82-2.53-2.1-3.99
		c-2.16-1.84-4.59-3.9-7.39-4.39c-3.08-0.54-6.23,0.84-8.31,3.03c-0.22,0.22-0.43,0.49-0.45,0.8c-0.01,0.25,0.12,0.5,0.25,0.74
		c0.55,1,1.11,2,1.66,3c1.24-0.12,1.71-1.22,2.77-1.83c1.13-0.65,2.57-0.68,3.87-0.32c1.29,0.37,2.46,1.09,3.54,1.89
		c1.3,0.97,2.57,2.15,3.03,3.67c0.62,2.04-0.36,4.16-1.56,5.88c-0.97,1.4-2.26,2.77-4.01,3.03c-0.51,0.08-0.87,0.28-1.37,0.42
		c-3.29,0.87-7.08-0.14-9.53-2.56s-3.44-6.11-2.49-9.29c0.34-1.15,0.93-2.29,0.7-3.49"/>
	<path class="st6" d="M341.59,281.51c0.85,1.01,2,1.76,3.27,2.13c-0.47,0.8-0.25,1.86,0.27,2.67c0.52,0.8,1.32,1.39,2.09,1.97
		c0.47,0.35,1.02,0.72,1.59,0.61c0.3-0.05,0.55-0.24,0.77-0.44c0.96-0.87,1.48-2.18,1.38-3.48c-0.01-0.12-0.02-0.25-0.1-0.35
		c-0.08-0.1-0.2-0.15-0.33-0.21c-0.66-0.24-1.35-0.38-2.04-0.39c-0.34-0.4,0.02-1.2,0.41-1.53c0.39-0.32,0.94-0.4,1.47-0.37
		c1.95,0.1,3.76,1.52,4.41,3.32c0.94,2.59-0.58,5.62-3.11,6.73c-2.53,1.11-5.73,0.37-7.84-1.49c-0.59-0.52-1.1-1.12-1.47-1.78
		C341.18,286.75,341.19,283.86,341.59,281.51z"/>
	<path class="st6" d="M363.36,261.84c0.88,1.62,1.58,3.33,2.05,5.09c0.43,1.62,0.68,3.27,0.93,4.92c0.89,5.91,1.52,11.84,0.2,17.6
		c-0.09-3.22-1.47-6.32-3.03-9.2c-1.49-2.73-3.65-4.57-6.09-6.57c-1.86-1.52-4.36-2.12-6.74-2c-2.38,0.11-4.66,0.87-6.82,1.78
		c-0.95,0.4-1.94,0.87-2.52,1.7c-0.14-0.38-0.28-0.64-0.39-1.01c-1.43-4.47-0.25-9.2,1.01-13.63c0.42-1.49,0.9-3.04,2.03-4.11
		c1.03-0.98,2.51-1.42,3.98-1.5c1.46-0.08,3.13,0.17,4.58,0.42c0.29-0.58,0.11-1.3-0.28-1.84c-0.39-0.54-0.98-0.91-1.57-1.23
		c-1.31-0.71-2.78-1.21-4.25-1.08c-1.46,0.12-2.91,0.96-3.38,2.3c-0.63-1.13-0.58-2.58,0.12-3.64c-3.2,1.86-5.03,5.41-5.62,9.03
		s-0.12,7.33,0.35,10.99c0.31,2.41,0.63,4.81,0.94,7.22c0.12,0.89,0.5,1.75,0.91,2.56"/>
	<path class="st6" d="M344.51,230.65c3.8,4.49,7.14,9.34,9.99,14.43c3.15,5.63,6.45,11.09,8.83,17.03"/>
	<path class="st6" d="M300.99,278.05c0.14,0.19,0.43,0.02,0.56-0.16c0.47-0.65,0.69-1.51,0.5-2.3c1-0.53,2.12-1.24,2.15-2.35
		c0.02-0.66-0.37-1.28-0.63-1.9c-0.66-1.55-0.57-3.28-0.32-4.91c0.25-1.64,0.35-3.3,0.69-4.91c1-4.81,0.44-9.93,1.93-14.6
		c0.65-2.04,1.4-3.88,2-5.93c0.77-2.69,1.56-5.4,2.79-7.9c1.24-2.5,3.15-4.6,5.27-6.45c1.52-1.31,3.11-2.54,4.76-3.69
		c1.04-0.72,2.13-1.42,3.33-1.86c2.37-0.86,5.09-0.67,7.51,0.23c2.41,0.9,4.6,2.73,6.59,4.35c2.7,2.21,3.81,5.88,3.46,9.22
		c-0.36,3.34-1.64,6.45-3.66,9.14c-1.36,1.81-3.28,3.25-5.53,3.83c-2.25,0.57-4.82,0.16-6.67-1.28c-0.75-0.59-1.37-1.33-1.92-2.09
		c-0.25-0.34-0.48-0.68-0.59-1.08c-0.14-0.47-0.09-0.96-0.02-1.43c0.12-0.86,0.28-1.71,0.49-2.55c0.13-0.53,0.3-1.08,0.71-1.45
		c0.56-0.51,1.43-0.54,2.2-0.39s1.51,0.45,2.28,0.51c-1.06-2.25-3.83-3.69-6.31-3.32c-2.47,0.37-4.57,1.92-6.24,3.7
		c-1.56,1.67-2.83,3.58-3.76,5.64c-0.57,1.26-0.98,2.69-1.36,4.03c-1.06,3.76-0.05,8.06,2.6,11.1c1.8,2.07,4.46,3.16,7.18,3.67
		c2.41,0.46,4.97,0.26,7.21,1.25c0.78,0.35,1.56,0.92,1.74,1.74c0.22,1-0.54,1.9-1.25,2.63c1.31,0.35,2.7-0.74,3.09-1.99
		c0.39-1.24,0.06-2.61-0.34-3.87c-0.32-1.01-0.74-2.05-1.57-2.74c-0.48-0.39-1.07-0.63-1.64-0.86c-2.74-1.11-5.48-2.24-8.23-3.36
		c-2.77-1.13-3.39-5.02-3.33-7.91c0.05-2.88,1.39-5.69,3.6-7.54"/>
	<path class="st6" d="M305.16,239.49c-0.47-2.61-0.12-5.31,0.96-7.69c0.4-0.88,0.95-1.68,1.16-2.62c0.51-2.21,1.81-4.17,3.25-5.93
		c1.44-1.76,2.84-3.8,4.36-5.49c0.61-0.68,1.21-1.35,1.83-2.04c1.17-1.31,2.35-2.62,3.79-3.64c1.44-1.02,3.19-1.81,5-1.56
		c1.72,0.24,3.37,1.03,4.63,2.21c0.33,0.32,0.65,0.67,0.86,1.08c0.43,0.84,0.33,1.83,0.22,2.75c-2.12-0.63-4.43-0.15-6.42,0.69
		c-1.99,0.85-3.72,2.14-5.44,3.42c-1.89,1.41-3.77,2.82-5.65,4.22c-1.92,1.43-3.55,3.19-4.59,5.33c-1.04,2.13-1.64,4.44-2.26,6.73
		C306.58,238.04,305.8,238.53,305.16,239.49z"/>
	<path class="st6" d="M300.88,278.04c-0.15,0.16-0.42-0.04-0.54-0.23c-0.41-0.71-0.56-1.59-0.31-2.35
		c-0.95-0.66-2.01-1.52-1.96-2.64c0.04-0.66,0.47-1.23,0.78-1.8c0.78-1.46,0.82-3.18,0.71-4.84c-0.11-1.66-0.09-3.32-0.3-4.98
		c-0.61-4.92,0.36-9.94-0.75-14.78c-0.48-2.11-1.09-4.04-1.51-6.17c-0.55-2.78-1.11-5.58-2.14-8.24s-2.76-5-4.73-7.13
		c-1.4-1.51-2.89-2.95-4.44-4.32c-0.98-0.86-2-1.7-3.17-2.3c-2.29-1.18-5.01-1.37-7.49-0.8c-2.47,0.56-4.79,2.08-6.89,3.44
		c-2.86,1.83-4.27,5.33-4.17,8.7c0.09,3.37,1.11,6.64,2.91,9.59c1.21,1.98,3,3.68,5.19,4.56c2.19,0.87,4.78,0.82,6.74-0.36
		c0.8-0.48,1.47-1.13,2.08-1.83c0.27-0.3,0.53-0.62,0.67-0.99c0.17-0.44,0.16-0.94,0.13-1.42c-0.04-0.87-0.14-1.74-0.28-2.6
		c-0.09-0.54-0.21-1.12-0.58-1.55c-0.52-0.59-1.38-0.73-2.15-0.69s-1.53,0.24-2.31,0.19c1.24-2.09,4.11-3.15,6.54-2.44
		s4.39,2.53,5.9,4.53c1.42,1.87,2.53,3.95,3.29,6.12c0.47,1.33,0.76,2.81,1.03,4.19c0.75,3.88-0.6,8.02-3.48,10.69
		c-1.96,1.82-4.69,2.53-7.44,2.68c-2.44,0.13-4.96-0.42-7.28,0.26c-0.8,0.24-1.63,0.71-1.87,1.48c-0.3,0.96,0.38,1.97,1.03,2.79
		c-1.33,0.17-2.63-1.11-2.91-2.39c-0.28-1.29,0.15-2.6,0.66-3.8c0.4-0.96,0.9-1.94,1.78-2.51c0.51-0.33,1.11-0.48,1.7-0.64
		c2.82-0.74,5.63-1.48,8.45-2.21c2.84-0.75,3.77-4.54,3.95-7.41c0.18-2.87-0.92-5.84-2.97-8"/>
</g>
<g id="Layer_4" class="st0">
	<path class="st10" d="M111.15,81.96l4.47-20.51c0,0-108.99-51.27-108.99,93.58c0,146.99,108.77,89.25,108.77,89.25l-3.1-20.75
		c0,0-84.31,27.36-85.57-66.57C25.48,63.02,93.64,68.45,111.15,81.96z"/>
	<polygon class="st10" points="129.08,250.54 177.83,53.47 200.18,53.47 249.14,250.54 229.34,250.54 214.02,188.55 163.14,188.55 
		148.24,250.54 	"/>
	<polygon class="st10" points="187.31,76.31 165.59,169 208.8,169 	"/>
	<path class="st10" d="M264.16,57.19v194.44h18.52v-85.38c0,0,43.14-25.52,55.77,85.38h19.16c0,0-14.97-98.09-32.14-93.86
		c0,0,25.93-10.64,27.03-51.17S323.21,41.4,264.16,57.19z"/>
	<path class="st10" d="M281.29,75.36v71.93c0,0,48.67,11.21,51.3-37.43C335.23,61.22,281.29,75.36,281.29,75.36z"/>
	<path class="st10" d="M375.64,56.7v193.85c0,0,118.66,30.72,117.71-102.63S375.64,56.7,375.64,56.7z"/>
	<path class="st10" d="M394.16,75.42v155.55c0,0,81.53,23.1,79.82-82.16S394.16,75.42,394.16,75.42z"/>
	<path class="st11" d="M108.22,70.13c-15.27,2.19-30.94-4.19-46.09-1.28c-10.53,2.02-20.08,8.7-25.6,17.9"/>
	<path class="st11" d="M111.97,69.99c-7.77-1.72-15.49-3.69-23.13-5.9c-3.82-1.11-7.62-2.28-11.41-3.51
		c-4.78-1.55-10.64-0.17-15.44,0.58c-5.32,0.84-10.68,2.24-15.15,5.25c-4.7,3.16-8.12,7.87-11.18,12.64
		c-19.23,30.04-27.78,66.77-23.8,102.22"/>
	<path class="st11" d="M45.57,84.14c-17.62,13.97-22.14,38.53-24.27,60.92c-1.4,14.67-2.31,29.39-2.72,44.12
		c-0.41,14.38,0.28,30.37,10.37,40.62"/>
	<path class="st11" d="M107.36,231.86c-5.91,1.61-11.45,4.35-17.24,6.37c-18.75,6.54-36.09-5.78-52.04-17.61
		c-6.72-4.99-12.72-11.12-17.34-18.11c-4.18-6.32-6.11-12.56-7.51-19.88c-1.12,10.3,7.86,19.07,11.97,28.08
		c1.49,3.27,2.71,6.66,3.8,10.08c1.7,5.34,3.02,11.04,6.42,15.62c4.76,6.4,12.68,9.3,20.03,11.55c11.37,3.48,23.9,5.07,35.2,0.46
		C96.49,246.01,102.18,235.77,107.36,231.86c10.18,6.79-26.07,3.18-40.04,0.62c-8.77-1.61-20.67-3.86-27.09-11.06
		c-2.14-2.4-3.45-5.46-5.27-8.1c-2.96-4.3-6.24-8.15-8.59-12.86c-2.36-4.73-4.03-9.81-4.93-15.02c-0.84-4.89-1-9.91-0.41-14.84"/>
	<path class="st11" d="M55.61,241.19c-5.67-1.99-10.71-5.75-14.23-10.62"/>
	<path class="st11" d="M109.11,231.78"/>
	<path class="st11" d="M179.27,60.3c6.14-0.55,12.41,0.46,18.07,2.91c-1.33,6.42,0.74,13.01,2.76,19.25
		c11.74,36.3,22.38,72.95,31.91,109.89"/>
	<path class="st11" d="M193.71,87.64c15,46.55,30.22,93.03,45.65,139.43"/>
	<path class="st11" d="M138.96,247.87c0.11-4.77,3.31-6.84,4.43-11.48c14.18-58.72,28.35-117.44,42.53-176.17"/>
	<path class="st11" d="M217.87,176.29c-18.5,1.35-37.04,2.09-55.59,2.22C183.38,178.51,196.78,176.29,217.87,176.29z"/>
	<path class="st11" d="M183.11,181.53c-3.34-1.56-9.68,5.75-13.02,4.18c17.9-4.27,36.33-6.27,54.72-5.95
		c-3.53,22.27-0.25,35.32,8.77,55.99c1.18,2.71,2.42,5.5,4.56,7.55s5.44,3.18,8.13,1.95"/>
	<path class="st11" d="M236.27,220.87c0.27,2.83,0.55,5.66,0.82,8.49"/>
	<path class="st11" d="M269.1,66.74c10.51-1.8,21.12-3.61,31.77-3.06c10.65,0.54,21.49,3.65,29.55,10.62
		c10.02,8.67,14.62,22.61,13.67,35.83c-1.06,14.82-8.78,29.03-20.62,38s-27.63,12.52-42.17,9.5"/>
	<path class="st11" d="M280,179.94c-0.64-41-3.64-79.06-9-119.71c18.43-0.92,46.79-1.08,62.35,8.85"/>
	<path class="st11" d="M339.76,95.04c0.42,10.04,0.23,20.1-0.56,30.11"/>
	<path class="st11" d="M270.51,93.49c-0.21,15.88-0.28,31.76-0.21,47.65c0.04,9.54-0.39,19.24,0.38,28.76
		c0.49,6.09,3.08,11.75,3.57,17.86c0.08,1.01,0.19,1.92,0.37,2.91c0.43,2.31,0.4,4.59,0.44,6.94c0.09,5.76,0.19,11.51,0.28,17.27
		c0.19,11.51,0.38,23.03,0.56,34.54c-0.4-10.55-7.29-30.39-6.57-40.92"/>
	<path class="st11" d="M314.25,159.18c20.23,26,32.44,58.15,34.56,91.03"/>
	<path class="st11" d="M379.19,239.85c14.4,0.54,28.81,1.08,43.21,1.62c5.78,0.22,11.74,0.4,17.14-1.65
		c6.63-2.52,11.57-8.07,15.98-13.62c17.5-22,29.31-49.07,30.57-77.15c0.98-21.87-4.21-44.47-17.24-62.07s-34.44-29.51-56.3-28.41
		c-10.95,0.55-21.51,4.19-31.61,8.46"/>
	<path class="st11" d="M311.88,158.81c2.86-1.21,6.24-0.58,8.93,0.97c2.69,1.55,4.8,3.92,6.74,6.34c4.9,6.12,9.05,12.85,12.33,19.98
		"/>
	<path class="st11" d="M435.51,66.42c-11.54-0.53-23.6-2.33-35.2-0.93c-4.58,0.56-9.38,1.77-12.89,4.93
		c-6.27,5.64-5.45,14.71-5.22,22.34c0.39,12.73,1.3,25.45,2.73,38.11c0.48,4.24,2.54,8.06,2.75,12.27
		c0.72,14.8,0.01,29.82,0.01,44.64c0,15.91,0,31.82,0,47.73"/>
	<path class="st11" d="M474.02,107.38c-0.85,12.83,6.32,24.8,7.95,37.56c1,7.82-0.09,15.88,1.69,23.56"/>
	<path class="st11" d="M486.03,183.09c-2.21,10.78-9.01,20.01-16.2,28.32c-7.47,8.63-15.57,16.71-24.21,24.16"/>
	<path class="st11" d="M436.3,241.52c-17.75,0.93-35.58,0.56-53.28-1.11"/>
	<path class="st11" d="M387.87,73.44c-1.29,16.51-0.49,33.17,2.38,49.48"/>
	<path class="st11" d="M380.8,55.67c-0.27,12.87-0.21,25.75,0.2,38.61"/>
	<path class="st11" d="M380.75,123.6c-0.52,37.91,1.4,75.85,5.73,113.52c17.65-2.08,30.52,6.58,48.29,6.8
		c-16.56-1.26-33.02,7.65-49.48,5.46"/>
	<path class="st11" d="M239.36,224.73c-0.55,4.72,0.22,9.59,2.21,13.91"/>
	<path class="st11" d="M269.5,240.54c-0.2,2.47-0.4,4.94-0.6,7.4"/>
	<path class="st11" d="M305.02,161.9c4.54,1.59,8.89,3.71,12.94,6.3"/>
	<path class="st11" d="M332.22,200.01c-0.27,4.24,0.56,8.54,2.39,12.37"/>
	<path class="st11" d="M381.11,245.97c4.61,0,9.23,0,13.84,0"/>
	<path class="st11" d="M428.56,235.05c8.08-0.21,16.12-1.64,23.78-4.23"/>
	<path class="st11" d="M469.2,97.83c1.7,4.97,4.04,9.73,6.94,14.11"/>
	<path class="st11" d="M57.53,75.05c-10.03,4.35-19.37,10.3-27.57,17.54"/>
	<path class="st11" d="M187.7,82.34c5.91,7.26,11.83,14.52,17.74,21.78"/>
	<path class="st11" d="M176.7,85.13c8.33,0,16.66,0,24.99,0"/>
	<path class="st11" d="M175.07,74.81c7.61,0,15.21,0,22.82,0"/>
	<path class="st11" d="M181.04,66.12c5.43,0,10.86,0,16.3,0"/>
	<path class="st11" d="M278.43,61.76c10.78-1.82,21.91-3.63,32.55-1.13c7.07,1.66,13.56,5.15,19.95,8.6
		c3.07,1.66,6.21,3.37,8.48,6.02c1.77,2.07,2.9,4.59,4,7.07c2.06,4.62,4.11,9.24,6.17,13.86"/>
	<path class="st11" d="M291.93,65.37c10.88-2.17,22.65,0.62,31.39,7.46c11.45,8.95,16.93,23.54,20.02,37.75"/>
	<path class="st11" d="M389.7,58.12c16.08-2.34,32.89-4.62,48.25,0.69c17,5.87,29.7,20.27,39.12,35.6"/>
	<path class="st11" d="M399.47,69.19c14.81-0.92,30.13-1.77,44.04,3.38c15.18,5.63,27.32,18.27,33.6,33.2"/>
	<path class="st11" d="M37.34,228.26c3.04,2.04,6.08,4.07,9.13,6.11"/>
	<path class="st11" d="M126.52,232.65"/>
	<path class="st11" d="M92.34,249.29c6.29-2.59,12.59-5.18,18.88-7.78"/>
	<path class="st11" d="M270.85,191.82c0,9.82,0,19.65,0,29.47"/>
	<path class="st11" d="M337.48,180.34c0.11,5.92,0.68,11.83,1.72,17.66"/>
	<path class="st11" d="M376.63,245.5c7.76-0.29,15.55,0.04,23.26,0.98"/>
	<path class="st10" d="M46.48,76.57c7.33-5.47,16.7-8.11,25.81-7.29C59.32,68.92,55.92,67.68,46.48,76.57z"/>
	<path class="st10" d="M19,184.57c-1.01,6.32,2.81,12.29,6.46,17.54c8.83,12.73,18.3,26,32.3,32.63"/>
	<path class="st10" d="M30.36,225.08c8.05,5.02,16.18,10.08,25.12,13.25s18.88,4.34,27.92,1.44"/>
	<path class="st10" d="M23.1,183.62c7.34,19.27,21.51,35.86,39.4,46.11"/>
	<path class="st10" d="M84.34,243.89c-11.64,3.01-24.11,2.78-35.63-0.66"/>
	<path class="st10" d="M98.92,238.94c4.44,0,8.87,0,13.31,0C104.83,238.94,106.31,238.94,98.92,238.94z"/>
	<path class="st10" d="M77.84,232.28c-8.5,0-17.01,0-25.51,0"/>
	<path class="st10" d="M41.48,83.9c9.55-8.8,15.27-23.94,27.51-28.28c11.42,0.88,33.62,6.07,44.16,10.56
		c-11.57-7.66-28.86-2.84-40.86,4.13c-6.31,3.66-21.51-6.38-27.19-1.8c-13.94,11.25-23.78,27.49-27.3,45.05"/>
	<path class="st10" d="M104.47,227.8c-6.54-0.43-13.2,1.17-18.84,4.51"/>
	<path class="st10" d="M55.01,79.45c5.88-5.25,12.61-9.55,19.85-12.67"/>
	<path class="st10" d="M47.81,70.67c-2.4-0.67-4.74,1.09-6.61,2.74c-2.7,2.37-5.4,4.75-8.1,7.12c-3.29,2.9-6.61,5.82-9.26,9.32
		c-3.31,4.38-5.47,9.53-7.02,14.79c-0.78,2.65-0.31,7.88-0.79,10.6c2.41-7.29,5.01-14.52,7.82-21.67
		c3.78-9.64,8.08-19.38,15.33-26.77"/>
	<path class="st10" d="M110.47,77.32c-4.44-1.62-8.58-4.08-12.13-7.21"/>
	<path class="st10" d="M29.12,80.74c-2.9,2.72-5.34,5.93-7.19,9.45"/>
	<path class="st10" d="M112.65,240.74c-5.17,1.3-10.28,2.89-15.28,4.74"/>
	<path class="st10" d="M51.51,239.33c3.71,1.46,7.42,2.92,11.12,4.39"/>
	<path class="st10" d="M104.46,236.3c1.61,3.07,4.35,2.28,6.83,4.7c-0.68,2.9-4.29,4.69-7.02,3.48"/>
	<path class="st10" d="M180.5,58.93c-0.06,6.82-3.64,13.03-5.96,19.44c-2.31,6.36-3.42,13.08-4.51,19.75
		c-2.52,15.32-8,25.31-10.59,40.62c-4.04,23.83-9.76,47.37-17.12,70.39c-3.87,12.11-8.25,24.48-7.42,37.17"/>
	<path class="st10" d="M196.28,55.23c-0.45,4.8-0.11,9.68,0.99,14.38"/>
	<path class="st10" d="M214.08,154.24c-1.03,7.55-1.01,15.24,0.04,22.78c0.44,3.19,0.69,7.3,2.33,10.13
		c0.5,0.87,1.25,1.55,1.83,2.36c0.62,0.86,1.07,1.81,1.56,2.76c2.06,4.04,4.2,8.03,6.36,12.02"/>
	<path class="st10" d="M160.07,172.3c12.42,0,24.83,0,37.25,0"/>
	<path class="st10" d="M206.76,140.84c-0.95,1.41-0.4,3.3,0.19,4.9c3.38,9.16,7.11,18.19,11.16,27.08"/>
	<path class="st10" d="M207.44,183.43c3,0.83,5.9,2.05,8.59,3.61"/>
	<path class="st10" d="M244.15,236.16c-2.32,2.98-4.83,5.8-7.52,8.45c-1,0.99-2.14,2-3.53,2.12c-1.4,0.12-2.95-1.18-2.51-2.51"/>
	<path class="st10" d="M132.21,248.33c2.35-6.16,9.83-12.74,12.95-18.56c0,6.21,0,12.42,0,18.63"/>
	<path class="st10" d="M233.19,244.11c-1.23-7.97-3.29-15.81-6.15-23.35"/>
	<path class="st10" d="M85.58,232.62c-6.39-0.28-12.78-0.33-19.17-0.14"/>
	<path class="st10" d="M272,174.98c-0.85,10.28-1.69,20.55-2.54,30.83"/>
	<path class="st10" d="M279.27,170.17c0,7.81,0,15.61,0,23.42"/>
	<path class="st10" d="M267.56,177.62c0,7.45,0,14.9,0,22.35"/>
	<path class="st10" d="M269.64,248.93c0.3-5.68,0.18-11.38-0.37-17.04"/>
	<path class="st10" d="M269.16,94.61c0-9.4,0-18.8,0-28.2"/>
	<path class="st10" d="M277.14,71.59c17.04-1.23,34.31-2.44,51.08,0.81"/>
	<path class="st10" d="M337.91,121.4c-2.61,8.97-7.54,17.48-15,23.08c-4.46,3.35-9.68,5.57-14.98,7.34
		c-8.91,2.98-18.52,4.78-27.71,2.83"/>
	<path class="st10" d="M345.27,91.94c1.23,2.49,2.46,4.98,3.7,7.46"/>
	<path class="st10" d="M337.35,118.03c-0.8,6.1-2.62,12.06-5.37,17.56"/>
	<path class="st10" d="M347.87,119.75c-4.14,15.65-14.99,29.4-29.25,37.06"/>
	<path class="st10" d="M337.61,118.7c-2.98,6.59-6.45,12.97-10.38,19.05"/>
	<path class="st10" d="M301.62,151.02c-7.27,0-14.55,0-21.82,0"/>
	<path class="st10" d="M281.4,69.63c10.47-0.17,20.94-0.13,31.41,0.12"/>
	<path class="st10" d="M301.85,161.02c9.64,7,18.63,14.27,26.58,23.16c1.66,1.86,3.35,3.7,4.96,5.61c2.38,2.81,4.47,5.79,5.72,9.28
		c2.03,5.7,2.08,11.84,3.27,17.72c1.72,8.52,2.68,17.08,3.21,25.75"/>
	<path class="st10" d="M346.28,248.97c-2.66,0.2-4.21-2.88-5.02-5.43c-6.14-19.37-12.29-38.73-18.43-58.1"/>
	<path class="st10" d="M331.12,184.06c-2.22,11.21,2.33,22.55,6.93,33.01c3.04,6.93,6.15,13.83,9.32,20.7"/>
	<path class="st10" d="M338.8,192.58c2.61,3.8,4.75,7.91,6.37,12.22"/>
	<path class="st10" d="M338.87,224.45c0,4.08,0,8.16,0,12.24"/>
	<path class="st10" d="M392.61,54.09c-2.99,0.61-5.87,1.72-8.49,3.28"/>
	<path class="st10" d="M390.55,119.09c-0.28,7.45-0.19,14.92,0.26,22.36"/>
	<path class="st10" d="M379.89,215.41c-0.16,7.99-0.12,15.97,0.11,23.96"/>
	<path class="st10" d="M420.83,236.64c5.43,0.72,11.05-0.17,15.99-2.53"/>
	<path class="st10" d="M490.03,163.25c0.92,10.55-7.32,20.42-13.12,29.29c-0.47-11-0.73-22-0.77-33.01"/>
	<path class="st10" d="M477.69,204.78c0.97,3.85-1.09,7.76-3.26,11.08c-6.98,10.64-16.02,19.93-26.47,27.19"/>
	<path class="st10" d="M476.55,90.94c2.17,5.55,4.57,11.02,7.17,16.39"/>
	<path class="st10" d="M380.38,245.21c0-6.03,0-12.06,0-18.09"/>
	<path class="st10" d="M427.74,235.06c-6.56,0.38-13.12,0.76-19.69,1.14"/>
	<path class="st10" d="M459.63,220.63c-6.79,2.99-13.3,6.63-19.4,10.86"/>
	<path class="st10" d="M476.71,151.06c-0.81,7.41,9.1,16.46,9.56,23.9c0.36,5.92-0.36,11.9-2.13,17.56"/>
</g>
<g id="Layer_6" class="st0">
</g>
</svg>
